HIERARCHY
ROOT hip
{
  OFFSET 0 0 0
  CHANNELS 6 Xposition Yposition Zposition Zrotation Yrotation Xrotation
  JOINT abdomen
  {
    OFFSET 0 20.6881 -0.73152
    CHANNELS 3 Zrotation Xrotation Yrotation
    JOINT chest
    {
      OFFSET 0 11.7043 -0.48768
      CHANNELS 3 Zrotation Xrotation Yrotation
      JOINT neck
      {
        OFFSET 0 22.1894 -2.19456
        CHANNELS 3 Zrotation Xrotation Yrotation
        JOINT head
        {
          OFFSET -0.24384 7.07133 1.2192
          CHANNELS 3 Zrotation Xrotation Yrotation
          JOINT leftEye
          {
            OFFSET 4.14528 8.04674 8.04672
            CHANNELS 3 Zrotation Xrotation Yrotation
            End Site
            {
              OFFSET 1 0 0
            }
          }
          JOINT rightEye
          {
            OFFSET -3.6576 8.04674 8.04672
            CHANNELS 3 Zrotation Xrotation Yrotation
            End Site
            {
              OFFSET 1 0 0
            }
          }
        }
      }
      JOINT rCollar
      {
        OFFSET -2.68224 19.2634 -4.8768
        CHANNELS 3 Zrotation Xrotation Yrotation
        JOINT rShldr
        {
          OFFSET -8.77824 -1.95073 1.46304
          CHANNELS 3 Zrotation Xrotation Yrotation
          JOINT rForeArm
          {
            OFFSET -28.1742 -1.7115 0.48768
            CHANNELS 3 Zrotation Xrotation Yrotation
            JOINT rHand
            {
              OFFSET -22.5879 0.773209 7.07136
              CHANNELS 3 Zrotation Xrotation Yrotation
              JOINT rThumb1
              {
                OFFSET -1.2192 -0.487915 3.41376
                CHANNELS 3 Zrotation Xrotation Yrotation
                JOINT rThumb2
                {
                  OFFSET -3.37035 -0.52449 3.41376
                  CHANNELS 3 Zrotation Xrotation Yrotation
                  End Site
                  {
                    OFFSET -1.78271 -1.18214 1.43049
                  }
                }
              }
              JOINT rIndex1
              {
                OFFSET -7.75947 0.938293 5.60832
                CHANNELS 3 Zrotation Xrotation Yrotation
                JOINT rIndex2
                {
                  OFFSET -2.54057 -0.884171 1.56538
                  CHANNELS 3 Zrotation Xrotation Yrotation
                  End Site
                  {
                    OFFSET -1.62519 -0.234802 1.16502
                  }
                }
              }
              JOINT rMid1
              {
                OFFSET -8.24714 1.18213 3.41376
                CHANNELS 3 Zrotation Xrotation Yrotation
                JOINT rMid2
                {
                  OFFSET -3.10165 -0.590103 1.0647
                  CHANNELS 3 Zrotation Xrotation Yrotation
                  End Site
                  {
                    OFFSET -2.48547 -0.328903 0.83742
                  }
                }
              }
              JOINT rRing1
              {
                OFFSET -8.82822 0.546677 1.51678
                CHANNELS 3 Zrotation Xrotation Yrotation
                JOINT rRing2
                {
                  OFFSET -2.60934 -0.819778 -0.0198488
                  CHANNELS 3 Zrotation Xrotation Yrotation
                  End Site
                  {
                    OFFSET -2.33842 -0.294052 0.168128
                  }
                }
              }
              JOINT rPinky1
              {
                OFFSET -8.27202 -0.0477905 -0.4584
                CHANNELS 3 Zrotation Xrotation Yrotation
                JOINT rPinky2
                {
                  OFFSET -1.82734 -0.647385 -0.700984
                  CHANNELS 3 Zrotation Xrotation Yrotation
                  End Site
                  {
                    OFFSET -1.69225 -0.51767 -0.607171
                  }
                }
              }
            }
          }
        }
      }
      JOINT lCollar
      {
        OFFSET 2.68224 19.2634 -4.8768
        CHANNELS 3 Zrotation Xrotation Yrotation
        JOINT lShldr
        {
          OFFSET 8.77824 -1.95073 1.46304
          CHANNELS 3 Zrotation Xrotation Yrotation
          JOINT lForeArm
          {
            OFFSET 28.1742 -1.7115 0.48768
            CHANNELS 3 Zrotation Xrotation Yrotation
            JOINT lHand
            {
              OFFSET 22.5879 0.773209 7.07136
              CHANNELS 3 Zrotation Xrotation Yrotation
              JOINT lThumb1
              {
                OFFSET 1.2192 -0.487915 3.41376
                CHANNELS 3 Zrotation Xrotation Yrotation
                JOINT lThumb2
                {
                  OFFSET 3.37035 -0.52449 3.41376
                  CHANNELS 3 Zrotation Xrotation Yrotation
                  End Site
                  {
                    OFFSET 1.78271 -1.18214 1.43049
                  }
                }
              }
              JOINT lIndex1
              {
                OFFSET 7.75947 0.938293 5.60832
                CHANNELS 3 Zrotation Xrotation Yrotation
                JOINT lIndex2
                {
                  OFFSET 2.54057 -0.884171 1.56538
                  CHANNELS 3 Zrotation Xrotation Yrotation
                  End Site
                  {
                    OFFSET 1.62519 -0.234802 1.16502
                  }
                }
              }
              JOINT lMid1
              {
                OFFSET 8.24714 1.18213 3.41376
                CHANNELS 3 Zrotation Xrotation Yrotation
                JOINT lMid2
                {
                  OFFSET 3.10165 -0.590103 1.0647
                  CHANNELS 3 Zrotation Xrotation Yrotation
                  End Site
                  {
                    OFFSET 2.48547 -0.328903 0.83742
                  }
                }
              }
              JOINT lRing1
              {
                OFFSET 8.82822 0.546677 1.51678
                CHANNELS 3 Zrotation Xrotation Yrotation
                JOINT lRing2
                {
                  OFFSET 2.60934 -0.819778 -0.0198488
                  CHANNELS 3 Zrotation Xrotation Yrotation
                  End Site
                  {
                    OFFSET 2.33842 -0.294052 0.168128
                  }
                }
              }
              JOINT lPinky1
              {
                OFFSET 8.27202 -0.0477905 -0.4584
                CHANNELS 3 Zrotation Xrotation Yrotation
                JOINT lPinky2
                {
                  OFFSET 1.82734 -0.647385 -0.700984
                  CHANNELS 3 Zrotation Xrotation Yrotation
                  End Site
                  {
                    OFFSET 1.69225 -0.51767 -0.607171
                  }
                }
              }
            }
          }
        }
      }
    }
  }
  JOINT rButtock
  {
    OFFSET -8.77824 4.35084 1.2192
    CHANNELS 3 Zrotation Xrotation Yrotation
    JOINT rThigh
    {
      OFFSET 0 -1.70687 -2.19456
      CHANNELS 3 Zrotation Xrotation Yrotation
      JOINT rShin
      {
        OFFSET 0 -36.8199 0.73152
        CHANNELS 3 Zrotation Xrotation Yrotation
        JOINT rFoot
        {
          OFFSET 0.73152 -45.1104 -5.12064
          CHANNELS 3 Zrotation Xrotation Yrotation
          End Site
          {
            OFFSET -1.1221 -3.69964 12.103
          }
        }
      }
    }
  }
  JOINT lButtock
  {
    OFFSET 8.77824 4.35084 1.2192
    CHANNELS 3 Zrotation Xrotation Yrotation
    JOINT lThigh
    {
      OFFSET 0 -1.70687 -2.19456
      CHANNELS 3 Zrotation Xrotation Yrotation
      JOINT lShin
      {
        OFFSET 0 -36.8199 0.73152
        CHANNELS 3 Zrotation Xrotation Yrotation
        JOINT lFoot
        {
          OFFSET -0.73152 -45.1104 -5.12064
          CHANNELS 3 Zrotation Xrotation Yrotation
          End Site
          {
            OFFSET 1.1221 -3.69964 12.103
          }
        }
      }
    }
  }
}
MOTION
Frames:	5
Frame Time:	0.00833333
-220.273 65.001335 120.48555 89.96128 83.25799 91.20446 -0.44862437 19.170698 10.908212 3.6611362 -13.62708 2.892485 -8.955326 15.442451 -11.854519 15.177115 -27.29447 -19.461628 -0.1753707 0.03505258 -0.24098732 -0.02815648 -0.059802305 0.09922034 -0.04943415 0.15306734 -0.18204124 40.84539 8.468144 46.223053 -19.47901 -19.587473 43.257526 -2.486735 -6.624733 -2.4652107 0.14424801 0.20884144 0.16463147 0.053313307 -0.19644463 -0.06820699 0.03517391 -0.032000653 -0.14355877 7.758758 5.611902 0.73290944 0.0714353 0.18361177 -0.23016939 2.6192124 1.1139783 0.02110523 0.21592067 0.21264322 0.08264265 10.131016 0.9433017 -0.25552645 -0.13190752 -0.12398864 0.19913554 2.0350404 -0.9319223 -0.14061826 -0.1542702 0.1404918 0.22506557 80.42283 69.13443 153.65634 32.536407 -39.805622 -83.41309 -9.623788 38.1177 -19.553091 -0.07590522 -0.09042619 0.12349219 -0.041404568 0.11050843 -0.085723214 -0.033224847 0.211693 0.05251263 -7.698372 5.203126 -0.4902695 -0.027196476 0.1763278 0.0008134905 -3.1169372 0.70950997 -0.08002208 -0.046231706 -0.21473901 -0.18304712 -10.217328 0.5925054 -0.00391206 -0.10228367 0.025040705 0.1086242 -2.1353326 -0.8146962 0.3801807 -0.02246182 -0.3632508 0.08235887 -58.074093 -54.225395 -3.418509 -4.209699 59.424355 5.0873656 -9.388085 17.27236 -24.875273 0.26038048 -0.030971281 -0.16250946 28.092466 -41.356888 27.193405 10.440007 83.53882 3.7171774 2.4796515 -15.424899 17.429256
-224.67726 67.016106 120.23359 91.64246 81.83141 92.763115 -0.90656585 19.485397 10.2182865 4.0510817 -14.010045 2.534215 -8.758925 15.432536 -10.785374 14.285082 -28.081186 -17.559269 -0.21670333 0.05131293 -0.15990873 -0.035706006 0.0087998705 0.06487884 -0.0540495 0.11137346 -0.14061606 37.444912 8.550384 45.50061 -19.174694 -21.76323 44.214657 -3.9654925 3.5629544 -3.3220258 0.17739433 0.17936088 0.09140634 0.07211437 -0.21118896 0.019928865 0.05624126 -0.039278638 -0.12511644 7.8614707 5.558767 0.7110481 0.09294157 0.10898609 -0.26978073 2.6309912 1.0892619 0.03471001 0.22858216 0.1596382 0.042689696 10.128124 0.91450906 -0.19672364 -0.093640625 -0.09614979 0.20951764 2.046641 -0.8679598 -0.16198802 -0.12692916 0.03372499 0.24057043 -1.3379765 79.02302 147.57399 31.894428 -40.546253 -85.086044 -8.269346 34.436493 -18.85266 -0.01477722 -0.04273207 0.15711072 -0.019367753 0.13118108 -0.072844826 -0.057353605 0.3016893 -0.011911659 -7.7031226 5.2244215 -0.46558407 0.0048334724 0.14957765 -0.013388632 -3.0654402 0.658261 -0.08226524 -0.083235316 -0.17407827 -0.12303593 -10.209205 0.59715265 -0.02249031 -0.056742225 0.14090921 0.106111124 -2.1319463 -0.7895775 0.4012612 0.03638844 -0.36702403 0.058857072 -71.22315 -54.251926 3.9859467 -5.119499 60.550076 4.2988467 -7.812163 9.862628 -20.760853 0.17230317 -0.052015357 -0.24905036 28.130775 -40.540066 30.699305 7.1247587 85.89865 -0.0007281806 3.691787 -16.25616 23.989872
-228.45445 68.994026 120.17907 89.2952 81.035645 90.72402 0.13321333 20.060745 9.440818 3.7052412 -14.253807 2.252275 -8.606533 15.226641 -9.725229 13.428798 -30.423048 -15.740287 -0.22010761 0.109497316 -0.14132008 -0.072256945 0.0794186 0.032265693 -0.056611285 0.067845464 -0.06247603 35.39838 7.5960884 45.38606 -18.93664 -22.97238 46.024223 -6.0896306 8.452164 -4.246774 0.19961293 0.12983365 0.059549414 0.09440793 -0.13454403 0.08855294 0.043697778 0.008424281 -0.14057979 7.916082 5.513017 0.6211758 0.08119159 0.003926693 -0.24643919 2.7040539 1.0978283 0.05647707 0.1914972 0.15320076 -0.0033890218 10.167213 0.8804252 -0.094152145 -0.08158203 -0.060156297 0.19829357 2.1442142 -0.7703323 -0.192496 -0.11318359 -0.024414368 0.24614547 -119.530365 78.423744 105.56744 31.178616 -40.86184 -86.19639 -3.5647311 37.3065 -14.097475 0.012151538 -0.034240615 0.22392255 0.013804192 0.09926845 -0.0742627 -0.03147131 0.39435884 -0.009611006 -7.6822505 5.3221884 -0.39821485 -0.008731095 0.12326721 -0.0063285013 -3.0019436 0.6463037 -0.11632327 -0.07079828 -0.15992634 -0.06614428 -10.2428255 0.5688085 -0.070573725 -0.05469744 0.23511928 0.0821722 -2.1399212 -0.792189 0.35421005 0.13163829 -0.31939006 0.06369524 -77.04768 -54.610203 -1.1809216 -6.5154943 62.584217 3.7391112 -5.8467016 5.0801716 -18.67852 0.11698141 -0.011813249 -0.29923424 27.67604 -41.247253 33.690315 4.753391 85.06709 -3.0196607 5.2788305 -16.507105 28.967453
-230.30365 70.80244 120.24141 75.2723 80.903854 77.191086 1.8779379 20.472847 8.293548 2.7337508 -14.120943 2.0547462 -8.444662 14.746178 -8.893769 12.425444 -32.57175 -14.612422 -0.1654134 0.12840378 -0.14074925 -0.12008581 0.11061857 -0.021867646 0.009360842 0.025733743 -5.5432344e-07 35.42548 7.054242 45.74133 -19.543879 -22.632965 48.23893 -5.433475 5.723471 -2.9492757 0.16289869 0.09354133 0.052801434 0.09325018 -0.036034964 0.07699719 0.010515186 0.055624124 -0.15392257 7.931785 5.471737 0.5038377 0.05727705 -0.057564512 -0.11970931 2.7958379 1.1348261 0.072323166 0.0899223 0.16815491 -0.030308217 10.236973 0.8456499 -0.024167063 -0.109711826 -0.012314919 0.11532562 2.2500856 -0.6969608 -0.22479096 -0.11791269 -0.048600268 0.19886988 148.74916 81.322395 102.170395 30.776863 -40.043808 -86.06425 4.256765 44.176567 -4.602808 0.0031776417 -0.046973746 0.2690994 0.04113008 0.041833512 -0.09554413 0.0048333392 0.45164394 0.029586218 -7.6097226 5.4532175 -0.3508581 -0.053632826 0.08396399 -0.023053557 -2.956851 0.6544012 -0.19265583 -0.010813196 -0.15679279 -0.025500378 -10.261222 0.5351328 -0.10028981 -0.06903971 0.23201196 0.0476452 -2.1801257 -0.8071242 0.22207187 0.1830295 -0.18767644 0.07748766 -74.36821 -57.838207 -16.168707 -7.858136 64.009254 3.1046195 -4.324923 4.371807 -17.08633 0.102937296 0.042297285 -0.24713968 27.471962 -42.077446 35.432938 4.6287146 82.00904 -3.8116837 6.5068636 -15.777502 31.682158
-230.57779 71.20211 121.074814 48.270966 79.82071 51.656826 3.588849 20.63128 7.317534 1.3737334 -13.8214655 2.0891063 -8.033666 14.89432 -8.30375 11.566136 -34.549503 -13.772593 -0.08427821 0.06622248 -0.105109744 -0.13230026 0.05882862 -0.09708763 0.12148615 -0.014567595 0.003071406 36.683334 6.270678 48.14595 -21.364853 -20.706528 48.650776 -3.3355632 -2.7504556 -1.4981309 0.083722174 0.055685617 0.007408034 0.07381712 -0.006187133 -0.017489739 -0.007702875 0.07243708 -0.11767613 7.9228663 5.4425297 0.42829582 0.04130327 -0.0845745 0.057575114 2.881156 1.1498874 0.0648003 -0.034629308 0.1608425 -0.03222561 10.304304 0.81219256 -0.032727692 -0.13703714 0.026945064 0.013357894 2.2843876 -0.6548354 -0.21955672 -0.12710062 -0.07432141 0.12268834 6.857375 80.72144 36.171833 30.136105 -38.42743 -83.702896 8.169663 46.95281 1.807267 -0.0038661936 -0.046503205 0.27255413 0.08214982 0.0036701811 -0.1298502 0.014934009 0.4193821 0.066050254 -7.5487275 5.5342703 -0.36801523 -0.06772224 0.056907605 -0.074201256 -2.9398458 0.68694377 -0.26754016 0.024601037 -0.15218084 0.01631736 -10.217619 0.5592692 -0.06933468 -0.06980753 0.16055888 0.02546804 -2.2289248 -0.7792693 0.11543587 0.13726465 -0.037954275 0.0699575 -65.39132 -61.727036 -35.39815 -6.9560113 63.1515 3.0021996 -4.2936325 6.139416 -14.830776 0.09241623 0.06342182 -0.1461541 27.10047 -42.460365 36.178932 5.248668 79.240105 -3.6624248 6.8841777 -14.6182165 31.897964
